#Comment line ignore any data following # character 
#Hierarchical Translation and Rotation (.htr) file 
[Header]	
#Header keywords are followed by a single value 
FileType HTR		#Single word string
DataType HTRS		#Translation followed by rotation and scale data
FileVersion 1		#integer
NumSegments 64		#integer
NumFrames 3		#integer
DataFrameRate 30		#integer, data frame rate in this file
EulerRotationOrder ZYX
CalibrationUnits mm
RotationUnits Degrees
GlobalAxisofGravity Y
BoneLengthAxis Y
ScaleFactor 1.00
[SegmentNames&Hierarchy]
#CHILD	PARENT
Pinger_Root GLOBAL
Pelvis Pinger_Root
L_Hip Pelvis
R_Hip Pelvis
Rear_Leg01 Pelvis
Spine1 Pelvis
L_Leg01 L_Hip
L_Leg02 L_Leg01
L_Leg03 L_Leg02
L_Foot L_Leg03
L_Toe1_01 L_Foot
L_Toe2_01 L_Foot
L_Toe3_01 L_Foot
planeAlignerLeft L_Foot
L_Toe1_02 L_Toe1_01
L_Toe1_03 L_Toe1_02
L_Toe2_02 L_Toe2_01
L_Toe2_03 L_Toe2_02
L_Toe3_02 L_Toe3_01
L_Toe3_03 L_Toe3_02
planeLockWeightLeft planeAlignerLeft
R_Leg01 R_Hip
R_Leg02 R_Leg01
R_Leg03 R_Leg02
R_Foot R_Leg03
planeAlignerRight R_Foot
R_Toe1_01 R_Foot
R_Toe2_01 R_Foot
R_Toe3_01 R_Foot
planeLockWeightRight planeAlignerRight
R_Toe1_02 R_Toe1_01
R_Toe1_03 R_Toe1_02
R_Toe2_02 R_Toe2_01
R_Toe2_03 R_Toe2_02
R_Toe3_02 R_Toe3_01
R_Toe3_03 R_Toe3_02
Rear_Leg02 Rear_Leg01
Rear_Leg03 Rear_Leg02
Rear_Leg04 Rear_Leg03
Rear_Foot Rear_Leg04
planeAlignerCenter Rear_Foot
Rear_Toe1_01 Rear_Foot
Rear_Toe2_01 Rear_Foot
Rear_Toe3_01 Rear_Foot
planeLockWeightCenter planeAlignerCenter
Rear_Toe1_02 Rear_Toe1_01
Rear_Toe1_03 Rear_Toe1_02
Rear_Toe2_02 Rear_Toe2_01
Rear_Toe2_03 Rear_Toe2_02
Rear_Toe3_02 Rear_Toe3_01
Rear_Toe3_03 Rear_Toe3_02
Back_Bone Spine1
Head Spine1
Motor_Bone Back_Bone
Ping_Mechanism Back_Bone
BN_LookIK Head
bottomMouth Head
L_Mouth01 Head
L_mouthFront Head
mouthGun Head
R_Mouth01 Head
R_mouthFront Head
TopMouth Head
weapon_bone Head
[BasePosition]
#SegmentName Tx, Ty, Tz, Rx, Ry, Rz, BoneLength
Pinger_Root 0.000000 0.000000 0.000000 -90.000000 0.000000 0.000000 10.000000 
Pelvis 0.000000 0.000000 0.000000 0.000000 0.000000 0.000000 10.000000 
L_Hip 0.000000 0.000000 0.000000 0.000000 0.000000 0.000000 10.000000 
R_Hip 0.000000 0.000000 0.000000 0.000000 0.000000 0.000000 10.000000 
Rear_Leg01 0.000000 0.000000 0.000000 0.000000 0.000000 0.000000 10.000000 
Spine1 0.000000 0.000000 0.000000 0.000000 0.000000 0.000000 10.000000 
L_Leg01 0.000000 0.000000 0.000000 0.000000 0.000000 0.000000 10.000000 
L_Leg02 0.000000 0.000000 0.000000 0.000000 0.000000 0.000000 10.000000 
L_Leg03 0.000000 0.000000 0.000000 0.000000 0.000000 0.000000 10.000000 
L_Foot 0.000000 0.000000 0.000000 0.000000 0.000000 0.000000 10.000000 
L_Toe1_01 0.000000 0.000000 0.000000 0.000000 0.000000 0.000000 10.000000 
L_Toe2_01 0.000000 0.000000 0.000000 0.000000 0.000000 0.000000 10.000000 
L_Toe3_01 0.000000 0.000000 0.000000 0.000000 0.000000 0.000000 10.000000 
planeAlignerLeft 0.000000 0.000000 0.000000 0.000000 0.000000 0.000000 10.000000 
L_Toe1_02 0.000000 0.000000 0.000000 0.000000 0.000000 0.000000 10.000000 
L_Toe1_03 0.000000 0.000000 0.000000 0.000000 0.000000 0.000000 10.000000 
L_Toe2_02 0.000000 0.000000 0.000000 0.000000 0.000000 0.000000 10.000000 
L_Toe2_03 0.000000 0.000000 0.000000 0.000000 0.000000 0.000000 10.000000 
L_Toe3_02 0.000000 0.000000 0.000000 0.000000 0.000000 0.000000 10.000000 
L_Toe3_03 0.000000 0.000000 0.000000 0.000000 0.000000 0.000000 10.000000 
planeLockWeightLeft 0.000000 0.000000 0.000000 0.000000 0.000000 0.000000 10.000000 
R_Leg01 0.000000 0.000000 0.000000 0.000000 0.000000 0.000000 10.000000 
R_Leg02 0.000000 0.000000 0.000000 0.000000 0.000000 0.000000 10.000000 
R_Leg03 0.000000 0.000000 0.000000 0.000000 0.000000 0.000000 10.000000 
R_Foot 0.000000 0.000000 0.000000 0.000000 0.000000 0.000000 10.000000 
planeAlignerRight 0.000000 0.000000 0.000000 0.000000 0.000000 0.000000 10.000000 
R_Toe1_01 0.000000 0.000000 0.000000 0.000000 0.000000 0.000000 10.000000 
R_Toe2_01 0.000000 0.000000 0.000000 0.000000 0.000000 0.000000 10.000000 
R_Toe3_01 0.000000 0.000000 0.000000 0.000000 0.000000 0.000000 10.000000 
planeLockWeightRight 0.000000 0.000000 0.000000 0.000000 0.000000 0.000000 10.000000 
R_Toe1_02 0.000000 0.000000 0.000000 0.000000 0.000000 0.000000 10.000000 
R_Toe1_03 0.000000 0.000000 0.000000 0.000000 0.000000 0.000000 10.000000 
R_Toe2_02 0.000000 0.000000 0.000000 0.000000 0.000000 0.000000 10.000000 
R_Toe2_03 0.000000 0.000000 0.000000 0.000000 0.000000 0.000000 10.000000 
R_Toe3_02 0.000000 0.000000 0.000000 0.000000 0.000000 0.000000 10.000000 
R_Toe3_03 0.000000 0.000000 0.000000 0.000000 0.000000 0.000000 10.000000 
Rear_Leg02 0.000000 0.000000 0.000000 0.000000 0.000000 0.000000 10.000000 
Rear_Leg03 0.000000 0.000000 0.000000 0.000000 0.000000 0.000000 10.000000 
Rear_Leg04 0.000000 0.000000 0.000000 0.000000 0.000000 0.000000 10.000000 
Rear_Foot 0.000000 0.000000 0.000000 0.000000 0.000000 0.000000 10.000000 
planeAlignerCenter 0.000000 0.000000 0.000000 0.000000 0.000000 0.000000 10.000000 
Rear_Toe1_01 0.000000 0.000000 0.000000 0.000000 0.000000 0.000000 10.000000 
Rear_Toe2_01 0.000000 0.000000 0.000000 0.000000 0.000000 0.000000 10.000000 
Rear_Toe3_01 0.000000 0.000000 0.000000 0.000000 0.000000 0.000000 10.000000 
planeLockWeightCenter 0.000000 0.000000 0.000000 0.000000 0.000000 0.000000 10.000000 
Rear_Toe1_02 0.000000 0.000000 0.000000 0.000000 0.000000 0.000000 10.000000 
Rear_Toe1_03 0.000000 0.000000 0.000000 0.000000 0.000000 0.000000 10.000000 
Rear_Toe2_02 0.000000 0.000000 0.000000 0.000000 0.000000 0.000000 10.000000 
Rear_Toe2_03 0.000000 0.000000 0.000000 0.000000 0.000000 0.000000 10.000000 
Rear_Toe3_02 0.000000 0.000000 0.000000 0.000000 0.000000 0.000000 10.000000 
Rear_Toe3_03 0.000000 0.000000 0.000000 0.000000 0.000000 0.000000 10.000000 
Back_Bone 0.000000 0.000000 0.000000 0.000000 0.000000 0.000000 10.000000 
Head 0.000000 0.000000 0.000000 0.000000 0.000000 0.000000 10.000000 
Motor_Bone 0.000000 0.000000 0.000000 0.000000 0.000000 0.000000 10.000000 
Ping_Mechanism 0.000000 0.000000 0.000000 0.000000 0.000000 0.000000 10.000000 
BN_LookIK 0.000000 0.000000 0.000000 0.000000 0.000000 0.000000 10.000000 
bottomMouth 0.000000 0.000000 0.000000 0.000000 0.000000 0.000000 10.000000 
L_Mouth01 0.000000 0.000000 0.000000 0.000000 0.000000 0.000000 10.000000 
L_mouthFront 0.000000 0.000000 0.000000 0.000000 0.000000 0.000000 10.000000 
mouthGun 0.000000 0.000000 0.000000 0.000000 0.000000 0.000000 10.000000 
R_Mouth01 0.000000 0.000000 0.000000 0.000000 0.000000 0.000000 10.000000 
R_mouthFront 0.000000 0.000000 0.000000 0.000000 0.000000 0.000000 10.000000 
TopMouth 0.000000 0.000000 0.000000 0.000000 0.000000 0.000000 10.000000 
weapon_bone 0.000000 0.000000 0.000000 0.000000 0.000000 0.000000 10.000000 
#Beginning of Data. Separated by tabs
#Fr	Tx	Ty	Tz	Rx	Ry	Rz	SF
[Pinger_Root]
18 0.000000 0.000000 0.000000 -0.000075 0.000012 18.516045 0.000000
19 0.000000 0.000000 0.000000 -0.000075 0.000014 21.189783 0.000000
20 0.000000 0.000000 0.000000 -0.000075 0.000016 23.862070 0.000000
[Pelvis]
18 1162.803467 558.807678 4340.026367 -34.650875 -82.592438 37.337883 4527.715332
19 1085.074829 482.015625 4366.892090 -41.976421 -82.578438 45.910217 4525.425293
20 960.599182 430.688995 4388.553223 -49.125416 -82.424973 54.306099 4513.052734
[L_Hip]
18 5.766392 125.831482 872.656799 160.158691 -45.484905 122.312202 881.701050
19 5.766392 125.831482 872.656799 160.158691 -45.484894 122.312202 881.701050
20 5.766392 125.831482 872.656799 160.158691 -45.484905 122.312202 881.701050
[R_Hip]
18 5.765438 125.836372 -872.654907 38.087841 49.812687 125.703735 881.699829
19 5.765438 125.836372 -872.654907 38.087830 49.812672 125.703735 881.699829
20 5.765438 125.836372 -872.654907 38.087841 49.812698 125.703735 881.699829
[Rear_Leg01]
18 -192.298416 -925.602966 -0.001907 -168.120132 -20.622942 -163.098175 945.367432
19 -192.298416 -925.602966 -0.001907 -170.766373 -22.380537 -157.762024 945.367432
20 -192.298416 -925.602966 -0.001907 -173.612137 -23.898151 -152.277451 945.367432
[Spine1]
18 290.604584 5.007505 0.000477 18.623432 -22.219423 18.353741 290.647736
19 290.604584 5.007505 0.000477 19.393690 -21.817301 17.634182 290.647736
20 290.604584 5.007505 0.000477 19.895212 -20.907354 16.817516 290.647736
[L_Leg01]
18 761.932007 -0.002384 -0.069261 6.878433 31.139544 -26.643410 761.932068
19 761.932007 -0.002384 -0.069261 16.171431 28.036825 -21.393013 761.932068
20 761.932007 -0.002384 -0.069261 24.387672 21.173315 -15.451563 761.932068
[L_Leg02]
18 1441.140503 -0.000954 -0.000715 -1.398947 0.422061 -102.148285 1441.140503
19 1441.140503 -0.000954 -0.000715 -1.428252 0.745795 -94.849609 1441.140503
20 1441.140503 -0.000954 -0.000715 -1.292691 0.805697 -96.942276 1441.140503
[L_Leg03]
18 1686.963989 -0.000715 -0.000954 0.019209 -0.006040 104.910583 1686.963989
19 1686.963989 -0.000715 -0.000954 0.072233 -0.014279 90.462936 1686.963989
20 1686.963989 -0.000715 -0.000954 0.090440 -0.013625 85.093361 1686.963989
[L_Foot]
18 3041.570068 -30.715107 11.297464 -45.007164 17.978128 35.238506 3041.746094
19 3041.570068 -30.715107 11.297464 -33.572163 25.713007 33.589729 3041.746094
20 3041.570068 -30.715107 11.297464 -28.719234 31.848694 32.481197 3041.746094
[L_Toe1_01]
18 -188.216690 -224.732346 -21.137953 86.054680 -5.703977 -153.059357 293.899567
19 -188.216690 -224.732346 -21.137953 92.825325 -4.723239 -152.677917 293.899567
20 -188.216690 -224.732346 -21.137953 97.205765 -3.296514 -150.212097 293.899567
[L_Toe2_01]
18 200.746536 -219.926590 148.838394 -75.012955 -9.663716 -85.920547 332.896027
19 200.746536 -219.926590 148.838394 -83.020622 -16.592615 -74.279976 332.896027
20 200.746536 -219.926590 148.838394 -91.047478 -19.466103 -63.296326 332.896027
[L_Toe3_01]
18 188.832520 -219.859131 -191.078659 -93.727318 7.902322 -95.252975 347.140900
19 188.832520 -219.859131 -191.078659 -99.425125 7.352096 -89.213432 347.140900
20 188.832520 -219.859131 -191.078659 -103.503578 10.570207 -76.660583 347.140900
[planeAlignerLeft]
18 30.874975 -879.642639 -69.263428 135.715210 -84.087227 123.049614 882.905334
19 50.139771 -909.388245 -13.120422 164.972122 -75.523369 95.250854 910.863953
20 58.770138 -923.180603 24.828186 170.396225 -70.531807 90.546349 925.382507
[L_Toe1_02]
18 413.761139 0.000477 0.000000 0.001405 -23.248917 0.001405 413.761139
19 413.761139 0.000477 0.000000 0.001386 -25.672955 0.001386 413.761139
20 413.761139 0.000477 0.000000 0.001442 -18.902283 0.001442 413.761139
[L_Toe1_03]
18 464.317322 0.000358 -0.000089 0.010612 77.301529 0.010612 464.317322
19 464.317322 0.000358 -0.000089 0.004673 60.912018 0.004673 464.317322
20 464.317322 0.000358 -0.000089 0.001064 22.646715 -0.003137 464.317322
[L_Toe2_02]
18 342.235809 -0.000477 0.000238 0.001197 -67.298470 0.001197 342.235809
19 342.235809 -0.000477 0.000238 -0.002384 -63.938393 -0.002384 342.235809
20 342.235809 -0.000477 0.000238 -0.002445 -53.665554 -0.002445 342.235809
[L_Toe2_03]
18 420.210846 -0.000715 0.000000 0.008357 73.853142 0.008357 420.210846
19 420.210846 -0.000715 0.000000 -0.001175 67.587891 -0.004740 420.210846
20 420.210846 -0.000715 0.000000 0.000084 51.996014 -0.003614 420.210846
[L_Toe3_02]
18 329.270111 0.000954 0.000000 0.001182 -76.419731 0.001182 329.270111
19 329.270111 0.000954 0.000000 -0.002379 -65.125694 -0.002379 329.270111
20 329.270111 0.000954 0.000000 -0.002602 -36.498215 -0.002602 329.270111
[L_Toe3_03]
18 439.137451 -0.001907 0.000954 -0.038203 88.193108 -0.034706 439.137451
19 439.137451 -0.001907 0.000954 -0.000835 64.725189 -0.004419 439.137451
20 439.137451 -0.001907 0.000954 0.004907 29.992313 -0.007206 439.137451
[planeLockWeightLeft]
18 259.260193 0.097961 0.076141 -0.011826 -0.004376 0.005620 259.260223
19 740.740723 0.097961 0.075912 -0.011826 -0.004376 0.005620 740.740723
20 1000.000000 0.098267 0.076084 -0.011826 -0.004376 0.005620 1000.000000
[R_Leg01]
18 761.455627 -0.001907 -0.000358 138.920578 11.801448 39.132973 761.455688
19 761.455627 -0.001907 -0.000358 139.891037 14.898282 39.581051 761.455688
20 761.455627 -0.001907 -0.000358 139.847900 17.510900 39.389053 761.455688
[R_Leg02]
18 1441.140625 0.000000 -0.000238 -1.696558 -0.844960 -136.247604 1441.140625
19 1441.140625 0.000000 -0.000238 -1.931347 -0.817378 -130.584564 1441.140625
20 1441.140625 0.000000 -0.000238 -2.051831 -0.679840 -125.423187 1441.140625
[R_Leg03]
18 1686.963989 0.000954 0.001431 0.125956 -0.081238 144.932541 1686.963989
19 1686.963989 0.000954 0.001431 0.121161 -0.075803 142.830948 1686.963989
20 1686.963989 0.000954 0.001431 0.110546 -0.066494 139.601074 1686.963989
[R_Foot]
18 3041.560059 -30.531288 -11.204481 -5.192673 -1.201747 69.975571 3041.734131
19 3041.560059 -30.531288 -11.204481 -2.991663 -3.985037 68.015015 3041.734131
20 3041.560059 -30.531288 -11.204481 -0.055719 -7.357510 66.465408 3041.734131
[planeAlignerRight]
18 46.204926 -497.878876 -334.449860 44.088634 -62.979794 -140.585709 601.560425
19 46.205719 -497.882111 -334.447601 44.001347 -63.024525 -140.508041 601.561890
20 46.206512 -497.885284 -334.445313 44.348915 -62.845295 -140.817093 601.563354
[R_Toe1_01]
18 -188.383347 -224.864899 21.052242 79.637253 34.122852 -173.695831 294.101532
19 -188.383347 -224.864899 21.052242 79.621521 34.054237 -173.713928 294.101532
20 -188.383347 -224.864899 21.052242 79.684616 34.328648 -173.641327 294.101532
[R_Toe2_01]
18 200.637817 -220.002121 -148.787384 -63.071976 8.896927 -42.949848 332.857574
19 200.637817 -220.002121 -148.787384 -63.116467 8.951173 -42.958195 332.857574
20 200.637817 -220.002121 -148.787384 -62.938541 8.734132 -42.925037 332.857574
[R_Toe3_01]
18 188.606735 -220.092957 191.126343 -39.395016 -23.082603 -83.449654 347.192566
19 188.606735 -220.092957 191.126343 -39.470867 -23.067141 -83.410042 347.192566
20 188.606735 -220.092957 191.126343 -39.167343 -23.128708 -83.568634 347.192566
[planeLockWeightRight]
18 999.999695 0.000305 0.076080 -0.011823 -0.004379 -0.000027 999.999695
19 999.999695 0.000305 0.076077 -0.011823 -0.004379 -0.000027 999.999695
20 999.999695 0.000305 0.076074 -0.011823 -0.004379 -0.000027 999.999695
[R_Toe1_02]
18 413.762085 0.000477 -0.000119 0.001388 -25.438768 0.001388 413.762085
19 413.762085 0.000477 -0.000119 0.001388 -25.446142 0.001388 413.762085
20 413.762085 0.000477 -0.000119 0.001388 -25.453512 0.001388 413.762085
[R_Toe1_03]
18 464.317810 0.000000 0.001088 0.005263 64.228180 0.005263 464.317810
19 464.317810 0.000000 0.001088 0.005263 64.228180 0.005263 464.317810
20 464.317810 0.000000 0.001088 0.005263 64.228180 0.005263 464.317810
[R_Toe2_02]
18 342.234741 -0.000954 0.000238 0.001196 -67.625534 0.001196 342.234741
19 342.234741 -0.000954 0.000238 0.001196 -67.625534 0.001196 342.234741
20 342.234741 -0.000954 0.000238 0.001196 -67.625534 0.001196 342.234741
[R_Toe2_03]
18 420.210846 0.000715 -0.000268 0.008619 74.348053 0.008619 420.210846
19 420.210846 0.000715 -0.000268 0.008635 74.376434 0.008635 420.210846
20 420.210846 0.000715 -0.000268 0.008650 74.404778 0.008650 420.210846
[R_Toe3_02]
18 329.270355 -0.000477 -0.000954 0.001180 -78.490440 0.001180 329.270355
19 329.270355 -0.000477 -0.000954 0.001180 -78.451485 0.001180 329.270355
20 329.270355 -0.000477 -0.000954 0.001180 -78.412552 0.001180 329.270355
[R_Toe3_03]
18 439.137939 0.000238 0.001431 -179.987335 85.433823 -179.983826 439.137939
19 439.137939 0.000238 0.001431 -179.987198 85.473206 -179.983704 439.137939
20 439.137939 0.000238 0.001431 -179.987076 85.512535 -179.983566 439.137939
[Rear_Leg02]
18 1162.777710 -0.029802 0.005960 0.755063 -4.750476 -114.723518 1162.777710
19 1162.777710 -0.029802 0.005960 1.881734 -7.427148 -110.487320 1162.777710
20 1162.777710 -0.029802 0.005960 3.202636 -10.282018 -103.867279 1162.777710
[Rear_Leg03]
18 607.192505 -0.013351 -0.073195 0.008590 -0.003375 63.627357 607.192505
19 607.192505 -0.013351 -0.073195 0.010605 -0.004867 65.664474 607.192505
20 607.192505 -0.013351 -0.073195 0.010555 -0.004974 66.821892 607.192505
[Rear_Leg04]
18 995.874512 -0.020504 -0.011921 -0.040312 -0.015699 56.716373 995.874573
19 995.874512 -0.020504 -0.011921 -0.043375 -0.018454 60.969425 995.874573
20 995.874512 -0.020504 -0.011921 -0.043753 -0.017538 63.377666 995.874573
[Rear_Foot]
18 3096.176270 -0.067472 -0.041425 -149.522018 81.838860 40.460522 3096.176270
19 3096.176270 -0.067472 -0.041425 -115.513130 82.524094 70.712746 3096.176270
20 3096.176270 -0.067472 -0.041425 -97.085808 80.160614 85.208580 3096.176270
[planeAlignerCenter]
18 -108.442375 32.319134 -770.244263 12.070993 -15.424155 177.434357 778.511719
19 -34.899349 84.438477 -823.638733 12.481618 -20.025307 173.471405 828.690918
20 13.512535 90.778191 -872.764893 14.107445 -22.221569 169.440323 877.577271
[Rear_Toe1_01]
18 0.653352 83.966492 -371.173737 15.569863 39.377804 100.591064 380.553192
19 0.653352 83.966492 -371.173737 10.787235 42.030533 93.810143 380.553192
20 0.653352 83.966492 -371.173737 5.787851 45.299969 88.061760 380.553192
[Rear_Toe2_01]
18 178.200760 -294.826019 -362.060547 -25.729212 43.022442 -80.593636 499.765686
19 178.200760 -294.826019 -362.060547 -29.653851 47.651970 -82.957314 499.765686
20 178.200760 -294.826019 -362.060547 -31.653999 48.571037 -85.841263 499.765686
[Rear_Toe3_01]
18 -153.359680 -308.780914 -362.060852 -12.631813 25.347832 -124.802254 499.952881
19 -153.359680 -308.780914 -362.060852 -16.912228 24.289820 -127.713051 499.952881
20 -153.359680 -308.780914 -362.060852 -18.203339 22.962526 -129.832916 499.952881
[planeLockWeightCenter]
18 1000.000122 0.000273 0.076052 -0.011814 -0.004373 -0.000015 1000.000122
19 1000.000122 0.000289 0.076039 -0.011814 -0.004373 -0.000015 1000.000122
20 1000.000122 0.000305 0.076027 -0.011814 -0.004373 -0.000015 1000.000122
[Rear_Toe1_02]
18 379.707825 0.194073 0.000477 -0.000289 -32.319866 0.006960 379.707855
19 379.707825 0.194073 0.000477 -0.000238 -31.625338 0.006932 379.707855
20 379.707825 0.194073 0.000477 -0.000267 -32.016186 0.006948 379.707855
[Rear_Toe1_03]
18 500.129700 0.165701 0.000119 0.000304 55.561729 0.007625 500.129761
19 500.129700 0.165701 0.000119 -0.000131 51.627628 0.007273 500.129761
20 500.129700 0.165701 0.000119 0.000088 53.702541 0.007448 500.129761
[Rear_Toe2_02]
18 340.494507 0.000238 -0.000954 0.001188 -71.881912 0.001188 340.494507
19 340.494507 0.000238 -0.000954 0.001195 -68.347313 0.001195 340.494507
20 340.494507 0.000238 -0.000954 0.001206 -63.507469 0.001206 340.494507
[Rear_Toe2_03]
18 433.103577 0.000000 0.000238 0.007944 73.007919 0.007944 433.103546
19 433.103577 0.000000 0.000238 0.006031 67.558128 0.006031 433.103546
20 433.103577 0.000000 0.000238 0.004638 60.682652 0.004638 433.103546
[Rear_Toe3_02]
18 340.494141 -0.000358 -0.000477 0.001187 -72.782471 0.001187 340.494171
19 340.494141 -0.000358 -0.000477 0.001177 -81.821663 0.001177 340.494171
20 340.494141 -0.000358 -0.000477 0.001175 -85.041725 0.001175 340.494171
[Rear_Toe3_03]
18 433.103577 0.001431 -0.000238 0.008678 74.454491 0.008678 433.103546
19 433.103577 0.001431 -0.000238 -179.954697 88.600029 -179.951202 433.103546
20 433.103577 0.001431 -0.000238 -179.994400 81.049568 -179.990875 433.103546
[Back_Bone]
18 1312.175781 -701.934692 0.000954 0.000023 -0.000007 -85.606667 1488.125488
19 1312.175781 -701.934692 0.000954 0.000023 -0.000007 -85.606667 1488.125488
20 1312.175781 -701.934692 0.000954 0.000023 -0.000007 -85.606667 1488.125488
[Head]
18 1406.159424 809.709290 0.001431 2.254446 -0.260704 7.778660 1622.625488
19 1406.159424 809.709290 0.001431 2.232762 -0.287268 7.817830 1622.625488
20 1406.159424 809.709290 0.001431 2.211060 -0.313817 7.857011 1622.625488
[Motor_Bone]
18 1158.364380 -417.834747 0.000477 -0.071817 8.953352 -105.382217 1231.419434
19 1158.364380 -417.834747 0.000477 -0.074224 8.429635 -105.414597 1231.419434
20 1158.364380 -417.834747 0.000477 -0.076329 7.905912 -105.446899 1231.419434
[Ping_Mechanism]
18 1226.358521 -430.057983 41.617176 0.000103 -0.000053 82.120995 1300.244995
19 1227.899170 -431.098602 41.326290 0.000103 -0.000053 82.120995 1302.033203
20 1232.443726 -434.322479 39.031296 0.000103 -0.000053 82.120995 1307.316772
[BN_LookIK]
18 193.241119 1380.371704 -0.002861 0.000000 89.965736 -31.038179 1393.832153
19 193.241119 1380.371704 -0.002861 0.000000 89.965736 -31.038179 1393.832153
20 193.241119 1380.371704 -0.002861 0.000000 89.965736 -31.038179 1393.832153
[bottomMouth]
18 -435.092926 615.759399 -0.000954 -0.000022 0.000016 73.527184 753.966492
19 -435.092926 615.759399 -0.000954 -0.000022 0.000016 73.527184 753.966492
20 -435.092926 615.759399 -0.000954 -0.000022 0.000016 73.527184 753.966492
[L_Mouth01]
18 554.440979 7.658243 838.222046 150.204178 23.759130 109.605339 1005.027161
19 554.440979 7.658243 838.222046 150.204178 23.759130 109.605339 1005.027161
20 554.440979 7.658243 838.222046 150.204178 23.759130 109.605339 1005.027161
[L_mouthFront]
18 551.629089 934.514771 339.150421 0.000081 2.804060 79.119301 1136.941284
19 551.629089 934.514771 339.150421 0.000081 2.804060 79.119301 1136.941284
20 551.629089 934.514771 339.150421 0.000081 2.804060 79.119301 1136.941284
[mouthGun]
18 55.332661 1627.420898 0.000000 0.000023 0.000009 -11.038128 1628.361328
19 55.332661 1627.420898 0.000000 0.000023 0.000009 -11.038128 1628.361328
20 55.332661 1627.420898 0.000000 0.000023 0.000009 -11.038128 1628.361328
[R_Mouth01]
18 554.442383 7.659197 -838.223938 29.795891 -23.759109 109.605331 1005.029541
19 554.442383 7.659197 -838.223938 29.795891 -23.759109 109.605331 1005.029541
20 554.442383 7.659197 -838.223938 29.795891 -23.759109 109.605331 1005.029541
[R_mouthFront]
18 551.629089 934.514282 -339.151367 0.000029 -2.803930 79.119133 1136.941162
19 551.629089 934.514282 -339.151367 0.000029 -2.803930 79.119133 1136.941162
20 551.629089 934.514282 -339.151367 0.000029 -2.803930 79.119133 1136.941162
[TopMouth]
18 461.269867 -56.106091 -0.008583 -0.000059 -0.000268 92.025169 464.669525
19 461.269867 -56.106091 -0.008583 -0.000059 -0.000268 92.025169 464.669525
20 461.269867 -56.106091 -0.008583 -0.000059 -0.000268 92.025169 464.669525
[weapon_bone]
18 -987.239868 1448.372803 0.001431 0.000000 89.965736 -31.038221 1752.833740
19 -987.239868 1448.372803 0.001431 0.000000 89.965736 -31.038221 1752.833740
20 -987.239868 1448.372803 0.001431 0.000000 89.965736 -31.038221 1752.833740
